<svg xmlns="http://www.w3.org/2000/svg" viewBox="0 0 512 512">
  <defs>
    <linearGradient id="bg" x1="0%" y1="0%" x2="100%" y2="100%">
      <stop offset="0%" style="stop-color:#6c5ce7"/>
      <stop offset="100%" style="stop-color:#a29bfe"/>
    </linearGradient>
  </defs>
  
  <!-- 背景 -->
  <rect width="512" height="512" rx="100" fill="url(#bg)"/>
  
  <!-- 地球/网络图标 -->
  <circle cx="256" cy="220" r="120" fill="none" stroke="white" stroke-width="12"/>
  <ellipse cx="256" cy="220" rx="60" ry="120" fill="none" stroke="white" stroke-width="8"/>
  <line x1="136" y1="220" x2="376" y2="220" stroke="white" stroke-width="8"/>
  <line x1="256" y1="100" x2="256" y2="340" stroke="white" stroke-width="8"/>
  
  <!-- 对话气泡 -->
  <path d="M340 340 L420 340 Q450 340 450 370 L450 420 Q450 450 420 450 L380 450 L360 480 L360 450 L340 450 Q310 450 310 420 L310 370 Q310 340 340 340 Z" fill="white"/>
  
  <!-- AI 眼睛/光点 -->
  <circle cx="380" cy="385" r="12" fill="#6c5ce7"/>
  <circle cx="380" cy="420" r="8" fill="#6c5ce7"/>
</svg>
